<?xml version="1.0" standalone="no"?>
<!DOCTYPE svg PUBLIC "-//W3C//DTD SVG 20010904//EN"
 "http://www.w3.org/TR/2001/REC-SVG-20010904/DTD/svg10.dtd">
<svg version="1.0" xmlns="http://www.w3.org/2000/svg"
 width="1280.000000pt" height="959.000000pt" viewBox="0 0 1280.000000 959.000000"
 preserveAspectRatio="xMidYMid meet">
<metadata>
Created by potrace 1.15, written by Peter Selinger 2001-2017
</metadata>
<g transform="translate(0.000000,959.000000) scale(0.100000,-0.100000)"
fill="#ba933e" stroke="none">
<path d="M12243 9575 c-29 -8 -70 -23 -91 -34 -22 -11 -1832 -1215 -4025
-2675 -2192 -1461 -3991 -2658 -3999 -2661 -7 -2 -782 574 -1723 1282 -1114
838 -1732 1296 -1773 1316 -51 24 -81 31 -153 35 -101 5 -155 -6 -241 -51
-198 -103 -289 -351 -205 -555 13 -32 772 -1272 1687 -2757 914 -1485 1744
-2833 1844 -2995 118 -193 199 -313 232 -347 144 -146 368 -172 551 -65 31 18
658 672 1951 2037 1049 1106 2073 2186 2277 2400 626 660 3947 4165 4078 4304
150 159 185 346 100 528 -33 70 -129 169 -196 202 -105 51 -213 63 -314 36z"/>
</g>
</svg>
